<svg width="40" height="40" fill="none" xmlns="http://www.w3.org/2000/svg"><circle cx="20" cy="20" r="15" fill="#8DD4B6" stroke="#00AB6B" stroke-width="1.5"/><circle cx="20" cy="20" r="11" fill="#E6F7F0" stroke="#00AB6B" stroke-width="1.5"/><circle cx="20" cy="20" r="7" fill="#fff" stroke="#00AB6B" stroke-width="1.5"/><path d="M28.997 3.083a.5.5 0 0 1 .826.119l1.906 4.036a.5.5 0 0 0 .292.26l4.227 1.434a.5.5 0 0 1 .213.806l-4.14 4.643a.5.5 0 0 1-.487.154l-4.992-1.163a.5.5 0 0 1-.358-.319L24.76 8.226a.5.5 0 0 1 .098-.5l4.14-4.643Z" fill="#fff" stroke="#00AB6B" stroke-width="1.5"/><path d="M34.446 5.612a.75.75 0 0 0-1.097-1.023l1.097 1.023ZM19.452 19.488a.75.75 0 0 0 1.096 1.024l-1.096-1.024ZM33.349 4.59l-13.897 14.9 1.096 1.023 13.898-14.9-1.097-1.023Z" fill="#00AB6B"/></svg>